<svg width="701" height="558" viewBox="0 0 701 558" fill="none" xmlns="http://www.w3.org/2000/svg">
<g clip-path="url(#clip0_1_104)">
<path d="M537.372 433.426C541.641 433.426 545.286 434.936 548.307 437.957C551.328 440.978 552.839 444.632 552.839 448.918C552.839 453.204 551.328 456.854 548.307 459.866C545.286 462.879 541.641 464.385 537.372 464.385C533.086 464.385 529.432 462.879 526.411 459.866C523.39 456.854 521.88 453.204 521.88 448.918C521.88 444.632 523.39 440.978 526.411 437.957C529.432 434.936 533.086 433.426 537.372 433.426ZM537.398 435.853C533.783 435.853 530.698 437.127 528.141 439.674C525.585 442.222 524.307 445.303 524.307 448.918C524.307 452.516 525.585 455.589 528.141 458.136C530.698 460.684 533.783 461.958 537.398 461.958C540.996 461.958 544.064 460.684 546.603 458.136C549.142 455.589 550.412 452.516 550.412 448.918C550.412 445.303 549.142 442.222 546.603 439.674C544.064 437.127 540.996 435.853 537.398 435.853ZM536.856 438.9C539.145 438.9 540.914 439.382 542.162 440.346C543.41 441.31 544.034 442.618 544.034 444.27C544.034 445.613 543.595 446.762 542.717 447.718C541.839 448.673 540.617 449.314 539.051 449.641V449.719C540.135 449.96 541.22 451.173 542.304 453.359L544.886 458.601H541.323L539.18 453.876C538.095 451.5 536.925 450.312 535.668 450.312H534.325V458.601H531.304V438.9H536.856ZM536.262 441.456H534.325V447.782H536.753C539.472 447.782 540.832 446.723 540.832 444.606C540.832 443.384 540.466 442.553 539.735 442.114C539.003 441.675 537.846 441.456 536.262 441.456Z" fill="url(#paint0_linear_1_104)"/>
<path d="M356.309 96.7468L539.421 218.294V233.204L526.989 230.453L500.73 477.45C500.73 477.45 625.032 502.222 700.999 557.262C700.999 557.262 563.123 502.911 418.102 500.155V353.267H447.458L356.309 285.152V96.7468ZM356.309 0L384.794 24.2815V84.9379L414.074 107.966L422.768 52.5645L466.939 91.3271V143.539L492.578 162.012L502.648 115.262L538.337 141.943L530.087 201.233L356.309 81.2906V0Z" fill="url(#paint1_linear_1_104)"/>
<path d="M344.69 96.7468V285.152L253.541 353.267H282.898V500.155C137.876 502.911 0 557.262 0 557.262C75.9674 502.222 200.25 477.45 200.25 477.45L174.011 230.453L161.598 233.204V218.294L344.69 96.7468ZM344.69 0V81.2906L170.893 201.233L162.663 141.943L198.352 115.262L208.421 162.012L234.06 143.539V91.3271L278.212 52.5645L286.906 107.966L316.205 84.9379V24.2815L344.69 0Z" fill="url(#paint2_linear_1_104)"/>
</g>
<defs>
<linearGradient id="paint0_linear_1_104" x1="531.418" y1="448.905" x2="552.968" y2="463.919" gradientUnits="userSpaceOnUse">
<stop stop-color="#0AA3BF"/>
<stop offset="1" stop-color="#078298"/>
</linearGradient>
<linearGradient id="paint1_linear_1_104" x1="444.971" y1="0.368786" x2="714.325" y2="190.196" gradientUnits="userSpaceOnUse">
<stop stop-color="#0F2B31"/>
<stop offset="1" stop-color="#15363E"/>
</linearGradient>
<linearGradient id="paint2_linear_1_104" x1="106.197" y1="278.63" x2="406.769" y2="408.158" gradientUnits="userSpaceOnUse">
<stop stop-color="#0AA3BF"/>
<stop offset="1" stop-color="#078298"/>
</linearGradient>
<clipPath id="clip0_1_104">
<rect width="700.999" height="557.262" fill="white"/>
</clipPath>
</defs>
</svg>
